<svg fill="red" xmlns="http://www.w3.org/2000/svg" xmlns:xlink="http://www.w3.org/1999/xlink" viewBox="0 0 625.02 625.02"><defs xmlns="http://www.w3.org/2000/svg"><style>.cls-1{opacity:0.15;fill:url(#linear-gradient);}.cls-2{fill:#2a94f4;}</style><linearGradient id="linear-gradient" x1="586.75" y1="647.12" x2="293.88" y2="139.85" gradientUnits="userSpaceOnUse"><stop offset="0" stop-color="#43aced" stop-opacity="0"/><stop offset="1" stop-color="#231f20"/></linearGradient></defs><title xmlns="http://www.w3.org/2000/svg">Multimedia Icons</title><g xmlns="http://www.w3.org/2000/svg" id="Layer_2" data-name="Layer 2"><path class="cls-1" d="M427.78,179.76,625,348.05V625H485.68L318.34,486S192.94,371.23,196,317.11s3-243,231.78-137.35"/></g><g xmlns="http://www.w3.org/2000/svg" id="Layer_1" data-name="Layer 1"><path class="cls-2" d="M324.57,135C246.51,135,183,198.54,183,276.59a138.85,138.85,0,0,0,2.52,26.59c.07.51.37,2.07,1,4.74a139.48,139.48,0,0,0,9.48,27.92c15.26,35.91,48.8,91.08,122.41,150.18a10,10,0,0,0,12.59,0c73.54-59.1,107.17-114.27,122.42-150.18a138,138,0,0,0,9.48-27.92c.59-2.67.89-4.23,1-4.74a145.58,145.58,0,0,0,2.52-26.59c-.15-78-63.69-141.6-141.74-141.6ZM444,299.7c0,.14-.08.29-.08.44-.07.37-.3,1.48-.67,3.18v.15A117.15,117.15,0,0,1,435,327.61c-.07.08-.07.23-.15.3C421,360.72,390.62,410.78,324.57,465.36c-66.06-54.58-96.42-104.64-110.27-137.45-.08-.07-.08-.22-.15-.3a124.49,124.49,0,0,1-8.22-24.14v-.15a32.42,32.42,0,0,1-.67-3.18c0-.15-.07-.3-.07-.52a120.15,120.15,0,0,1-2.22-23.1A121.6,121.6,0,1,1,444,299.7Zm0,0"/><path class="cls-2" d="M324.57,188.24a89.91,89.91,0,1,0,89.9,89.91,90,90,0,0,0-89.9-89.91Zm0,159.81a69.91,69.91,0,1,1,69.9-69.9,70,70,0,0,1-69.9,69.9Zm0,0"/></g></svg>
